<svg width="60" height="42" viewBox="0 0 60 42" fill="none" xmlns="http://www.w3.org/2000/svg">
<path fill-rule="evenodd" clip-rule="evenodd" d="M54.6434 19.5957L51.4082 11.9781C51.2204 11.5359 50.8099 11.2643 50.3296 11.2643H43.3037C42.6582 11.2643 42.1318 11.7907 42.1318 12.4362V19.2388C42.1318 19.8842 42.6582 20.4107 43.3037 20.4107H54.1041C54.3067 20.4107 54.4808 20.317 54.5926 20.1482C54.7044 19.9792 54.7225 19.7823 54.6434 19.5957ZM22.9266 0.140381L16.5398 0.140381V10.5514H22.9266V0.140381ZM0.9375 34.2425L0.9375 29.056H37.5914V36.5862H22.2274C22.2274 32.6388 19.0263 29.4377 15.079 29.4377C11.1316 29.4377 7.93055 32.6388 7.93055 36.5862H3.28113C1.99031 36.5862 0.9375 35.5334 0.9375 34.2425ZM0.9375 27.1809L0.9375 2.48401C0.9375 1.19319 1.99031 0.140381 3.28113 0.140381L14.6648 0.140381V11.2546C14.6648 11.9 15.1912 12.4264 15.8367 12.4264H23.6297C24.2752 12.4264 24.8016 11.9 24.8016 11.2546V0.140381L35.2478 0.140381C36.5386 0.140381 37.5914 1.19331 37.5914 2.48401V27.1809H0.9375ZM48.7958 33.9494C47.3386 33.9494 46.1591 35.1289 46.1591 36.5862C46.1591 38.0434 47.3385 39.2229 48.7958 39.2229C50.253 39.2229 51.4325 38.0435 51.4325 36.5862C51.4325 35.1289 50.253 33.9494 48.7958 33.9494ZM48.7958 31.3127C51.7083 31.3127 54.0693 33.6737 54.0693 36.5862C54.0693 39.4986 51.7083 41.8596 48.7958 41.8596C45.8834 41.8596 43.5224 39.4986 43.5224 36.5862C43.5224 33.6737 45.8834 31.3127 48.7958 31.3127ZM15.0789 33.9494C13.6216 33.9494 12.4423 35.1289 12.4423 36.5862C12.4423 38.0434 13.6216 39.2229 15.0789 39.2229C16.5361 39.2229 17.7156 38.0435 17.7156 36.5862C17.7157 35.1289 16.5362 33.9494 15.0789 33.9494ZM15.0789 31.3127C12.1664 31.3127 9.80543 33.6737 9.80543 36.5862C9.80543 39.4986 12.1664 41.8596 15.0789 41.8596C17.9913 41.8596 20.3523 39.4986 20.3523 36.5862C20.3524 33.6737 17.9914 31.3127 15.0789 31.3127ZM39.4665 7.66159L51.4805 7.66159C52.7154 7.66159 53.7688 8.32007 54.2153 9.37159L58.8641 20.3176C59.0016 20.6415 59.0625 20.9385 59.0625 21.2858V34.8284C59.0625 35.7966 58.2729 36.5862 57.3047 36.5862H55.9443C55.9443 32.6388 52.7432 29.4377 48.7958 29.4377C44.8485 29.4377 41.6474 32.6388 41.6474 36.5862H39.4665V7.66159Z" fill="#FF5400"/>
</svg>
