<svg width="60" height="58" viewBox="0 0 60 58" fill="none" xmlns="http://www.w3.org/2000/svg">
<path d="M59.6523 27.9405L54.5538 21.0212L54.6124 12.4255C54.615 12.044 54.4954 11.6718 54.2711 11.3633C54.0468 11.0548 53.7295 10.8263 53.3659 10.7112L45.1715 8.11618L40.1736 1.12185C39.7172 0.482614 38.8978 0.21902 38.155 0.466088L30 3.18829L21.845 0.465385C21.1014 0.218199 20.2822 0.481794 19.8263 1.12115L14.8292 8.11478L6.6342 10.7112C6.27059 10.8261 5.95337 11.0545 5.72905 11.3629C5.50472 11.6713 5.3851 12.0434 5.38773 12.4248L5.44633 21.0205L0.347671 27.9398C0.121813 28.2469 0 28.6182 0 28.9994C0 29.3807 0.121813 29.752 0.347671 30.0591L5.44621 36.9784L5.38761 45.5741C5.38496 45.9555 5.50457 46.3278 5.72888 46.6363C5.9532 46.9448 6.27043 47.1733 6.63409 47.2884L14.8284 49.8834L19.8262 56.8777C20.0483 57.1886 20.3642 57.42 20.7276 57.538C21.0909 57.656 21.4825 57.6544 21.8449 57.5335L29.9999 54.8113L38.1549 57.5342C38.5172 57.6551 38.9088 57.6567 39.2722 57.5387C39.6355 57.4206 39.9514 57.1892 40.1735 56.8784L45.1707 49.8848L53.3659 47.2885C53.7295 47.1736 54.0467 46.9452 54.271 46.6368C54.4954 46.3284 54.615 45.9563 54.6124 45.5749L54.5538 36.9785L59.6523 30.0592C59.8781 29.7522 60 29.381 60 28.9999C60 28.6187 59.8781 28.2475 59.6523 27.9405Z" fill="#FF5400"/>
<path d="M38.7823 21.0405L26.6522 33.1712L21.2186 27.7376C20.5208 27.0397 19.3908 27.0397 18.6935 27.7376C17.9964 28.4354 17.9957 29.5654 18.6935 30.2627L25.39 36.9592C25.7386 37.3077 26.1957 37.482 26.6529 37.482C27.1101 37.482 27.5665 37.3077 27.9158 36.9592L41.3087 23.5663C42.0066 22.8684 42.0066 21.7384 41.3087 21.0412C40.6109 20.3439 39.4794 20.3434 38.7823 21.0405Z" fill="#242424"/>
</svg>
