<svg width="133" height="37" viewBox="0 0 133 37" fill="none" xmlns="http://www.w3.org/2000/svg">
<rect x="0.5" y="0.5" width="132" height="36" rx="18" stroke="#242424"/>
<path d="M10.28 24L13.556 13.92H15.663L18.939 24H17.42L14.403 14.802H14.781L11.799 24H10.28ZM11.981 21.725V20.353H17.245V21.725H11.981ZM24.8284 24.21C23.8204 24.21 22.9617 23.9907 22.2524 23.552C21.5431 23.1087 20.9994 22.4927 20.6214 21.704C20.2481 20.9153 20.0614 20.0007 20.0614 18.96C20.0614 17.9193 20.2481 17.0047 20.6214 16.216C20.9994 15.4273 21.5431 14.8137 22.2524 14.375C22.9617 13.9317 23.8204 13.71 24.8284 13.71C25.9904 13.71 26.9517 14.004 27.7124 14.592C28.4777 15.18 29.0097 15.971 29.3084 16.965L27.8244 17.364C27.6284 16.6593 27.2784 16.1063 26.7744 15.705C26.2751 15.3037 25.6264 15.103 24.8284 15.103C24.1144 15.103 23.5194 15.264 23.0434 15.586C22.5674 15.908 22.2081 16.3583 21.9654 16.937C21.7274 17.5157 21.6084 18.19 21.6084 18.96C21.6037 19.73 21.7204 20.4043 21.9584 20.983C22.2011 21.5617 22.5604 22.012 23.0364 22.334C23.5171 22.656 24.1144 22.817 24.8284 22.817C25.6264 22.817 26.2751 22.6163 26.7744 22.215C27.2784 21.809 27.6284 21.256 27.8244 20.556L29.3084 20.955C29.0097 21.949 28.4777 22.74 27.7124 23.328C26.9517 23.916 25.9904 24.21 24.8284 24.21ZM35.755 24.21C34.747 24.21 33.8883 23.9907 33.179 23.552C32.4696 23.1087 31.926 22.4927 31.548 21.704C31.1746 20.9153 30.988 20.0007 30.988 18.96C30.988 17.9193 31.1746 17.0047 31.548 16.216C31.926 15.4273 32.4696 14.8137 33.179 14.375C33.8883 13.9317 34.747 13.71 35.755 13.71C36.917 13.71 37.8783 14.004 38.639 14.592C39.4043 15.18 39.9363 15.971 40.235 16.965L38.751 17.364C38.555 16.6593 38.205 16.1063 37.701 15.705C37.2016 15.3037 36.553 15.103 35.755 15.103C35.041 15.103 34.446 15.264 33.97 15.586C33.494 15.908 33.1346 16.3583 32.892 16.937C32.654 17.5157 32.535 18.19 32.535 18.96C32.5303 19.73 32.647 20.4043 32.885 20.983C33.1276 21.5617 33.487 22.012 33.963 22.334C34.4436 22.656 35.041 22.817 35.755 22.817C36.553 22.817 37.2016 22.6163 37.701 22.215C38.205 21.809 38.555 21.256 38.751 20.556L40.235 20.955C39.9363 21.949 39.4043 22.74 38.639 23.328C37.8783 23.916 36.917 24.21 35.755 24.21ZM46.6815 24.21C45.6735 24.21 44.8149 23.9907 44.1055 23.552C43.3962 23.1087 42.8525 22.4927 42.4745 21.704C42.1012 20.9153 41.9145 20.0007 41.9145 18.96C41.9145 17.9193 42.1012 17.0047 42.4745 16.216C42.8525 15.4273 43.3962 14.8137 44.1055 14.375C44.8149 13.9317 45.6735 13.71 46.6815 13.71C47.6849 13.71 48.5412 13.9317 49.2505 14.375C49.9645 14.8137 50.5082 15.4273 50.8815 16.216C51.2549 17.0047 51.4415 17.9193 51.4415 18.96C51.4415 20.0007 51.2549 20.9153 50.8815 21.704C50.5082 22.4927 49.9645 23.1087 49.2505 23.552C48.5412 23.9907 47.6849 24.21 46.6815 24.21ZM46.6815 22.817C47.3955 22.8263 47.9882 22.67 48.4595 22.348C48.9355 22.0213 49.2925 21.5687 49.5305 20.99C49.7685 20.4067 49.8875 19.73 49.8875 18.96C49.8875 18.19 49.7685 17.518 49.5305 16.944C49.2925 16.3653 48.9355 15.915 48.4595 15.593C47.9882 15.271 47.3955 15.1077 46.6815 15.103C45.9675 15.0937 45.3725 15.25 44.8965 15.572C44.4252 15.894 44.0705 16.3467 43.8325 16.93C43.5945 17.5133 43.4732 18.19 43.4685 18.96C43.4639 19.73 43.5805 20.4043 43.8185 20.983C44.0565 21.557 44.4135 22.005 44.8895 22.327C45.3702 22.649 45.9675 22.8123 46.6815 22.817ZM53.5378 24V13.92H57.6118C57.7098 13.92 57.8311 13.9247 57.9758 13.934C58.1205 13.9387 58.2581 13.9527 58.3888 13.976C58.9488 14.0647 59.4155 14.256 59.7888 14.55C60.1668 14.844 60.4491 15.215 60.6358 15.663C60.8225 16.111 60.9158 16.6057 60.9158 17.147C60.9158 17.693 60.8225 18.19 60.6358 18.638C60.4491 19.086 60.1668 19.457 59.7888 19.751C59.4155 20.045 58.9488 20.2363 58.3888 20.325C58.2581 20.3437 58.1181 20.3577 57.9688 20.367C57.8241 20.3763 57.7051 20.381 57.6118 20.381H55.0008V24H53.5378ZM55.0008 18.995H57.5558C57.6491 18.995 57.7518 18.9903 57.8638 18.981C57.9805 18.9717 58.0901 18.9553 58.1928 18.932C58.4915 18.862 58.7318 18.7337 58.9138 18.547C59.0958 18.3557 59.2265 18.1363 59.3058 17.889C59.3851 17.6417 59.4248 17.3943 59.4248 17.147C59.4248 16.8997 59.3851 16.6547 59.3058 16.412C59.2265 16.1647 59.0958 15.9477 58.9138 15.761C58.7318 15.5697 58.4915 15.439 58.1928 15.369C58.0901 15.341 57.9805 15.3223 57.8638 15.313C57.7518 15.3037 57.6491 15.299 57.5558 15.299H55.0008V18.995ZM65.5282 24V15.299H62.1752V13.92H70.3442V15.299H66.9912V24H65.5282ZM80.0954 24H78.6114V16.503L73.6484 24H72.1644V13.92H73.6484V21.41L78.6114 13.92H80.0954V24ZM82.7491 24V13.92H84.0721L87.7261 21.501L91.3591 13.92H92.6961V23.993H91.3101V17.098L88.0551 24H87.3901L84.1281 17.098V24H82.7491ZM95.3573 24V13.92H101.797V15.299H96.8203V18.127H100.957V19.506H96.8203V22.621H101.797V24H95.3573ZM104.178 24V13.92H105.641V18.267H110.681V13.92H112.151V24H110.681V19.646H105.641V24H104.178ZM117.331 24V15.299H113.978V13.92H122.147V15.299H118.794V24H117.331Z" fill="#242424"/>
</svg>
