<svg width="36" height="60" viewBox="0 0 36 60" fill="none" xmlns="http://www.w3.org/2000/svg">
<path d="M12.0333 59.8574C12.827 60.1967 13.7499 59.9135 14.2135 59.1812L35.3072 25.6655C35.4751 25.3996 35.5686 25.0935 35.578 24.7791C35.5873 24.4647 35.5122 24.1535 35.3603 23.8781C35.2085 23.6026 34.9855 23.373 34.7147 23.213C34.4439 23.0531 34.1351 22.9687 33.8206 22.9687L19.7426 22.9687L24.9783 2.1903C25.1895 1.35089 24.762 0.483932 23.9672 0.14233C23.1776 -0.197514 22.2489 0.0873694 21.7871 0.818619L0.693313 34.3342C0.525388 34.6002 0.431882 34.9063 0.422543 35.2207C0.413204 35.5351 0.488373 35.8462 0.640215 36.1217C0.792058 36.3971 1.01501 36.6268 1.28583 36.7868C1.55665 36.9467 1.86542 37.0311 2.17995 37.0311L16.2579 37.0311L11.0222 57.8095C10.811 58.649 11.2384 59.5158 12.0333 59.8574Z" fill="#FF5400"/>
</svg>
