<svg width="24" height="24" viewBox="0 0 24 24" fill="none" xmlns="http://www.w3.org/2000/svg">
<path d="M19.8948 4.09375C17.7781 1.98437 14.9558 0.8125 11.9767 0.8125C5.78332 0.8125 0.765896 5.8125 0.765896 11.9844C0.765896 13.9375 1.31468 15.8906 2.25544 17.5312L0.6875 23.3125L6.64569 21.75C8.29203 22.6094 10.0952 23.0781 11.9767 23.0781C18.1701 23.0781 23.1875 18.0781 23.1875 11.9063C23.1091 9.01563 22.0115 6.20312 19.8948 4.09375ZM17.3861 15.9687C17.1509 16.5937 16.0534 17.2187 15.5046 17.2969C15.0342 17.375 14.407 17.375 13.7798 17.2188C13.3878 17.0625 12.8391 16.9062 12.2119 16.5938C9.38959 15.4219 7.58646 12.6094 7.42966 12.375C7.27287 12.2187 6.2537 10.8906 6.2537 9.48437C6.2537 8.07812 6.95928 7.45312 7.19447 7.14062C7.42966 6.82812 7.74325 6.82812 7.97844 6.82812C8.13523 6.82812 8.37042 6.82812 8.52722 6.82812C8.68401 6.82812 8.91921 6.75 9.1544 7.29687C9.38959 7.84375 9.93837 9.25 10.0168 9.32812C10.0952 9.48438 10.0952 9.64062 10.0168 9.79688C9.93837 9.95312 9.85997 10.1094 9.70318 10.2656C9.54638 10.4219 9.38959 10.6562 9.31119 10.7344C9.1544 10.8906 8.9976 11.0469 9.1544 11.2812C9.31119 11.5937 9.85997 12.4531 10.7223 13.2344C11.8199 14.1719 12.6823 14.4844 12.9959 14.6406C13.3095 14.7969 13.4662 14.7187 13.623 14.5625C13.7798 14.4062 14.3286 13.7813 14.4854 13.4688C14.6422 13.1563 14.8774 13.2344 15.1126 13.3125C15.3478 13.3906 16.7589 14.0938 16.9941 14.25C17.3077 14.4063 17.4645 14.4844 17.5429 14.5625C17.6213 14.7969 17.6213 15.3437 17.3861 15.9687Z" fill="#242424"/>
</svg>
